<?xml version="1.0" encoding="UTF-8" standalone="no"?>
<!-- Created with Inkscape (http://www.inkscape.org/) -->
<svg
   xmlns:xml="http://www.w3.org/XML/1998/namespace"
   xmlns:svg="http://www.w3.org/2000/svg"
   xmlns="http://www.w3.org/2000/svg"
   id="svg2"
   height="156.25000"
   width="256.25000"
   y="0.00000000"
   x="0.00000000"
   version="1.0">
  <defs
     id="defs3" />
  <g
     id="layer1">
    <path
       id="pointA"
       style="fill:#000000;fill-opacity:1.0000000;stroke:none;stroke-width:1.5000000;stroke-linecap:butt;stroke-linejoin:miter;stroke-miterlimit:4.0000000;stroke-dashoffset:0.00000000;stroke-opacity:1.0000000"
       transform="translate(14.04038,139.4928)"
       d="M 3.7500000 0.00000000 A 3.7500000 3.7500000 0 1 1  -3.7500000,4.5922738e-016 A 3.7500000 3.7500000 0 1 1  3.7500000 -9.1845477e-016 z" />
    <path
       id="pointB"
       style="fill:#000000;fill-opacity:1.0000000;stroke:none;stroke-width:1.5000000;stroke-linecap:butt;stroke-linejoin:miter;stroke-miterlimit:4.0000000;stroke-dashoffset:0.00000000;stroke-opacity:1.0000000"
       transform="translate(243.0404,33.49276)"
       d="M 3.7500000 0.00000000 A 3.7500000 3.7500000 0 1 1  -3.7500000,4.5922738e-016 A 3.7500000 3.7500000 0 1 1  3.7500000 -9.1845477e-016 z" />
    <path
       id="path"
       style="fill:none;fill-opacity:0.75000000;fill-rule:evenodd;stroke:#000000;stroke-width:2.2500000;stroke-linecap:butt;stroke-linejoin:miter;stroke-miterlimit:4.0000000;stroke-opacity:1.0000000"
       d="M 14.040380,139.49276 C 14.130799,139.23600 21.426202,99.415274 38.448807,59.594534 C 56.252341,17.946989 77.407261,15.425609 85.564951,18.861872 C 97.100931,23.721168 100.84232,29.857094 121.73797,53.211064 C 142.40827,76.313164 177.11818,83.016914 205.63510,68.105834 C 219.97807,60.606104 243.32800,33.148694 243.04037,33.492764" />
    <text
       xml:space="preserve"
       id="labelA"
       style="font-size:16.000000;font-style:italic;font-variant:normal;font-weight:normal;font-stretch:normal;fill:#000000;fill-opacity:1.0000000;stroke:none;stroke-width:1.0000000px;stroke-linecap:butt;stroke-linejoin:miter;stroke-opacity:1.0000000;font-family:Bitstream Vera Sans;text-anchor:start;writing-mode:lr-tb"
       y="146.56001"
       x="19.785192"><tspan
         id="tspanA"
         y="146.56001"
         x="19.785192">A</tspan></text>
    <text
       xml:space="preserve"
       id="labelB"
       style="font-size:16.000000;font-style:italic;font-variant:normal;font-weight:normal;font-stretch:normal;fill:#000000;fill-opacity:1.0000000;stroke:none;stroke-width:1.0000000px;stroke-linecap:butt;stroke-linejoin:miter;stroke-opacity:1.0000000;font-family:Bitstream Vera Sans;text-anchor:start;writing-mode:lr-tb"
       y="33.311634"
       x="227.3728"><tspan
         id="tspanB"
         y="33.311634"
         x="227.3728">B</tspan></text>
  </g>
</svg>
